
<!-- Generator: visioncortex VTracer 0.6.4 -->
<svg version="1.1" xmlns="http://www.w3.org/2000/svg" viewBox="0 0 500 500" preserveAspectRatio="xMidYMid meet">
<path d="M0 0 C0.33 0 0.66 0 1 0 C1.08413 1.4364 1.14053 2.87441 1.1875 4.3125 C1.98048 13.31667 7.38441 22.04027 14.19922 27.88672 C19.81091 31.94792 25.55545 35.54751 31.5625 39 C46.77327 47.77461 57.94655 57.2218 62.75 74.73438 C64.06237 81.18686 64.19387 87.62104 64.25 94.1875 C64.26414 95.43467 64.26414 95.43467 64.27856 96.70703 C64.21755 108.31058 64.21755 108.31058 62 113 C59 112 59 112 57.71094 109.69922 C57.27008 108.70535 56.82922 107.71148 56.375 106.6875 C51.56979 96.46162 44.37128 88.1153 36.65234 79.96094 C35 78 35 78 35 76 C34.34 76 33.68 76 33 76 C31.51953 74.49609 31.51953 74.49609 29.8125 72.4375 C27.4672 69.67461 25.09171 67.0332 22.5 64.5 C19.35913 61.42265 16.49921 58.16613 13.67578 54.79688 C11.92843 52.92326 10.08941 51.47488 8 50 C12.99132 56.61539 18.04324 63.14419 23.4375 69.4375 C28.72559 75.61694 33.80205 81.9407 38.7583 88.38916 C39.87972 89.84397 41.01521 91.2879 42.15234 92.73047 C52.88532 106.77898 62.30717 124.26952 62.0625 142.375 C62.05348 143.24898 62.04445 144.12297 62.03516 145.02344 C62.02355 145.6757 62.01195 146.32797 62 147 C59.89883 144.89883 59.36197 143.60079 58.3125 140.875 C52.46027 127.51991 40.36956 122.3365 27.5625 117.0625 C19.53026 113.66439 12.00142 110.27073 5 105 C4.08477 104.3168 3.16953 103.63359 2.22656 102.92969 C1.12441 101.97449 1.12441 101.97449 0 101 C0 100.34 0 99.68 0 99 C-0.66 99 -1.32 99 -2 99 C-3.54677 97.11592 -4.93876 95.25578 -6.3125 93.25 C-6.71477 92.66452 -7.11704 92.07905 -7.53149 91.47583 C-14.93353 80.37502 -18.39703 68.72238 -18.375 55.4375 C-18.37411 54.47312 -18.37323 53.50874 -18.37231 52.51514 C-18.23515 44.14996 -16.75331 36.86091 -14 29 C-13.72672 28.16984 -13.45344 27.33969 -13.17188 26.48438 C-11.84632 22.67692 -10.16452 19.41329 -8 16 C-7.1126 14.5073 -6.23871 13.00653 -5.375 11.5 C-4.94961 10.76781 -4.52422 10.03563 -4.08594 9.28125 C-2.87515 6.98794 -2.87515 6.98794 -2.47656 4.21875 C-2.3193 3.48656 -2.16203 2.75438 -2 2 C-1.34 2 -0.68 2 0 2 C0 1.34 0 0.68 0 0 Z M5 45 C6 47 6 47 6 47 Z " fill="#049145" transform="translate(194,164)"/>
<path d="M0 0 C16.50714 4.29638 30.17402 11.79237 43 23 C43.75797 23.65613 44.51594 24.31227 45.29688 24.98828 C62.23945 40.81264 73.66548 65.04666 75.20703 88.09546 C75.30278 91.33735 75.32854 94.56926 75.3125 97.8125 C75.3073 99.51575 75.3073 99.51575 75.302 101.25342 C75.08505 118.01737 75.08505 118.01737 72 125 C71.01 125 70.02 125 69 125 C68.06795 121.27182 67.88143 118.16276 68.4375 114.375 C71.82067 90.6928 64.79425 65.70328 50.8623 46.42578 C48.671 43.53378 46.37628 40.74283 44 38 C44.27715 38.86883 44.5543 39.73766 44.83984 40.63281 C45.20594 41.79681 45.57181 42.96088 45.9375 44.125 C46.1199 44.69477 46.3023 45.26453 46.49023 45.85156 C50.7159 59.3737 49.67118 72.10939 43.9375 85 C41.79894 89.03878 39.20647 92.4122 36.1875 95.8125 C35.79748 96.25658 35.40746 96.70066 35.00562 97.1582 C29.05733 103.52922 21.55111 106.76818 13.5625 109.875 C6.47444 112.74724 0.4855 115.54139 -5 121 C-5.44344 121.44086 -5.88687 121.88172 -6.34375 122.33594 C-8.95397 125.26312 -9.89036 128.32967 -11 132 C-11.33 132 -11.66 132 -12 132 C-14.00108 117.46754 -6.10391 102.51579 2.34326 91.20068 C5.00367 87.86405 7.81814 84.67278 10.66992 81.49951 C12.76443 79.13819 14.75952 76.69909 16.75 74.25 C17.46543 73.37215 18.18086 72.4943 18.91797 71.58984 C21.99377 67.76385 25.01021 63.89346 28 60 C27.38125 60.66 26.7625 61.32 26.125 62 C24 64 24 64 22 64 C21.74348 64.54527 21.48695 65.09055 21.22266 65.65234 C19.52615 68.90985 17.07659 71.04599 14.4375 73.5625 C4.13201 83.65133 -3.60103 94.63885 -11 107 C-14.74386 103.25614 -14.17903 97.56228 -14.25 92.5 C-14.22638 79.91345 -11.88493 69.26071 -2.99609 59.88672 C1.62786 55.49438 6.45632 52.54482 12.08984 49.62109 C19.88705 45.27768 28.78496 39.7292 32 31 C32.57293 29.00816 32.57293 29.00816 32 27 C30.29742 25.45957 28.79648 24.33123 26.875 23.125 C26.3431 22.7755 25.8112 22.42601 25.26318 22.06592 C21.22042 19.50859 17.09045 17.79447 12.625 16.125 C6.62876 13.83456 3.81959 11.11543 0.82031 5.26953 C0 3 0 3 0 0 Z " fill="#88BB45" transform="translate(276,152)"/>
<path d="M0 0 C3.63062 1.53219 5.98638 3.71831 8.75 6.5 C9.54922 7.29406 10.34844 8.08812 11.17188 8.90625 C13 11 13 11 13 13 C13.66 13 14.32 13 15 13 C15.85376 14.31348 15.85376 14.31348 16.69141 16.14062 C16.99627 16.79934 17.30113 17.45805 17.61523 18.13672 C18.08413 19.18279 18.08413 19.18279 18.5625 20.25 C18.87896 20.93191 19.19543 21.61383 19.52148 22.31641 C22.87915 29.65907 24.48181 36.69467 22.24609 44.69922 C19.01745 53.16966 14.77375 57.50118 7.0625 62 C0.59924 65.79146 -5.08663 69.19493 -8.25 76.3125 C-8.80937 77.55275 -9.38552 78.7861 -10 80 C-10.33 80 -10.66 80 -11 80 C-11.92416 68.84566 -10.36908 56.90628 -8 46 C-9.72516 49.67535 -11.10995 52.82723 -11.5625 56.875 C-11.77906 58.42188 -11.77906 58.42188 -12 60 C-12.99 60.495 -12.99 60.495 -14 61 C-19.24523 57.0997 -20.9093 52.33556 -22 46 C-22.54448 38.55461 -19.58379 32.71313 -15 27 C-12.28229 24.26835 -9.43245 21.69114 -6.49512 19.198 C-3.2425 16.39555 -1.07444 14.31137 0 10 C0.23924 7.33277 0.23924 7.33277 0.125 4.6875 C0.10695 3.80449 0.08891 2.92148 0.07031 2.01172 C0.04711 1.34785 0.02391 0.68398 0 0 Z M-6 41 C-5 43 -5 43 -5 43 Z " fill="#F1C408" transform="translate(261,139)"/>
<path d="M0 0 C-1.28897 8.15858 -5.72239 14.87974 -11.3125 20.8125 C-16.80468 26.64679 -20.94132 33.11272 -25 40 C-25.56848 40.9552 -26.13695 41.91039 -26.72266 42.89453 C-33.57555 55.42604 -37.22622 70.80443 -37.125 85.0625 C-37.12524 85.7001 -37.12548 86.33771 -37.12573 86.99463 C-37.1046 90.36455 -36.97003 93.69394 -36.66797 97.05078 C-36.61044 97.6933 -36.55292 98.33582 -36.49365 98.9978 C-36.37456 100.23189 -36.24117 101.4647 -36.09229 102.69556 C-35.92578 104.36719 -35.92578 104.36719 -36 107 C-37.485 107.495 -37.485 107.495 -39 108 C-44.68505 102.31495 -43.25768 89.70759 -43.3125 82.1875 C-43.28787 72.75339 -42.52892 64.08213 -40 55 C-39.74477 54.01773 -39.48953 53.03547 -39.22656 52.02344 C-35.30526 38.67664 -17.39299 0 0 0 Z " fill="#89BA47" transform="translate(192,168)"/>
<path d="M0 0 C1.04736 0.00902 2.09473 0.01805 3.17383 0.02734 C5.72031 0.0506 8.26627 0.08327 10.8125 0.125 C9.62037 4.49615 8.58578 7.47182 4.8125 10.125 C2.24957 10.64932 -0.266 10.62855 -2.875 10.625 C-19.52641 11.12131 -36.28471 15.72544 -50.16406 25.08594 C-50.8318 25.42883 -51.49953 25.77172 -52.1875 26.125 C-53.1775 25.795 -54.1675 25.465 -55.1875 25.125 C-56.28121 22.56303 -56.3764 20.60924 -56.29297 17.82812 C-54.15309 12.59564 -48.72676 10.97226 -43.76953 8.87891 C-29.36253 3.23527 -15.58303 -0.25988 0 0 Z " fill="#8DBF48" transform="translate(250.1875,148.875)"/>
<path d="M0 0 C2.21483 2.55557 4.1923 5.25522 6.19141 7.98047 C20.55724 27.55202 41.50817 41.33383 65.84229 45.30029 C68.41882 45.68122 70.99582 46.04128 73.58154 46.35425 C75.0587 46.53739 76.53036 46.764 78 47 C78 47.33 78 47.66 78 48 C56.05988 49.9733 33.62164 38.38232 17.26172 24.74609 C10.04306 18.44757 2.72606 11.42472 -2 3 C-1 1 -1 1 0 0 Z " fill="#4B825C" transform="translate(167,303)"/>
<path d="M0 0 C0.99 0.33 1.98 0.66 3 1 C1.97513 5.14307 -0.4807 8.17883 -3.1875 11.375 C-3.59404 11.85904 -4.00058 12.34309 -4.41943 12.8418 C-5.60278 14.23703 -6.79849 15.6204 -8 17 C-8.53496 17.62133 -9.06992 18.24266 -9.62109 18.88281 C-20.84007 30.94686 -37.04911 40.81431 -53 45 C-55.375 44.625 -55.375 44.625 -57 44 C-56.00742 43.65969 -55.01484 43.31937 -53.99219 42.96875 C-32.9601 35.55655 -12.33708 23.06198 -1.5625 2.6875 C-1.04688 1.80063 -0.53125 0.91375 0 0 Z " fill="#498259" transform="translate(332,303)"/>
<path d="M0 0 C2.06387 0.93779 2.85582 1.69479 3.82788 3.75244 C4.03808 4.44515 4.24828 5.13786 4.46484 5.85156 C4.70783 6.62113 4.95082 7.3907 5.20117 8.18359 C5.56565 9.39209 5.56565 9.39209 5.9375 10.625 C7.63209 16.1701 9.45014 21.23439 12.33032 26.28662 C13 28 13 28 12 31 C8.48805 27.85082 6.4836 24.66833 4.4375 20.5 C4.13594 19.89068 3.83438 19.28135 3.52368 18.65356 C0.86262 13.07481 -1.40303 7.19767 -2 1 C-1.34 0.67 -0.68 0.34 0 0 Z " fill="#589A47" transform="translate(154,274)"/>
<path d="M0 0 C0.66 0 1.32 0 2 0 C2 0.66 2 1.32 2 2 C2.66 2 3.32 2 4 2 C3.69297 7.5923 1.9227 12.13161 -0.375 17.1875 C-0.67922 17.88553 -0.98344 18.58355 -1.29688 19.30273 C-4.51912 26.53902 -4.51912 26.53902 -7 29 C-7.99 28.67 -8.98 28.34 -10 28 C-9.375 25.89453 -9.375 25.89453 -8 23 C-7.51365 21.84022 -7.0349 20.67724 -6.5625 19.51172 C-6.30823 18.89112 -6.05396 18.27051 -5.79199 17.6311 C-2.85645 10.48515 -2.85645 10.48515 -0.75 3.0625 C-0.37875 1.54656 -0.37875 1.54656 0 0 Z " fill="#589948" transform="translate(343,275)"/>
<path d="M0 0 C-1.41378 0.36553 -2.83121 0.71695 -4.25 1.0625 C-5.03891 1.25973 -5.82781 1.45695 -6.64062 1.66016 C-9.10395 2.01497 -10.65604 1.76878 -13 1 C-11.58622 0.63447 -10.16879 0.28305 -8.75 -0.0625 C-7.96109 -0.25973 -7.17219 -0.45695 -6.35938 -0.66016 C-3.89605 -1.01497 -2.34396 -0.76878 0 0 Z " fill="#678E7B" transform="translate(273,349)"/>
</svg>